<svg width="23" height="17" viewBox="0 0 23 17" fill="none" xmlns="http://www.w3.org/2000/svg">
<path d="M5.2 7.42857H9.4M7.3 5.28571V9.57143M14.65 8.5H14.6605M17.8 6.35714H17.8105M17.086 1H5.914C4.87479 1.00025 3.87258 1.39362 3.10109 2.10407C2.32959 2.81452 1.84362 3.7916 1.7371 4.84643C1.7308 4.90214 1.7266 4.95464 1.71925 5.00929C1.6342 5.73143 1 11.1314 1 12.7857C1 13.6382 1.33187 14.4558 1.92261 15.0586C2.51335 15.6614 3.31457 16 4.15 16C5.2 16 5.725 15.4643 6.25 14.9286L7.7347 13.4136C8.12843 13.0117 8.66249 12.7858 9.2194 12.7857H13.7806C14.3375 12.7858 14.8716 13.0117 15.2653 13.4136L16.75 14.9286C17.275 15.4643 17.8 16 18.85 16C19.6854 16 20.4866 15.6614 21.0774 15.0586C21.6681 14.4558 22 13.6382 22 12.7857C22 11.1304 21.3658 5.73143 21.2807 5.00929C21.2734 4.95571 21.2692 4.90214 21.2629 4.8475C21.1566 3.79248 20.6708 2.81514 19.8992 2.10447C19.1277 1.39379 18.1254 1.00027 17.086 1Z" stroke="#F5ECE2" stroke-width="2" stroke-linecap="round" stroke-linejoin="round"/>
</svg>
