<svg width="19" height="21" viewBox="0 0 19 21" fill="none" xmlns="http://www.w3.org/2000/svg">
<path d="M11.375 0.750003H2.875C2.31141 0.750003 1.77091 0.950181 1.3724 1.3065C0.973883 1.66282 0.75 2.14609 0.75 2.65V17.85C0.75 18.3539 0.973883 18.8372 1.3724 19.1935C1.77091 19.5498 2.31141 19.75 2.875 19.75H15.625C16.1886 19.75 16.7291 19.5498 17.1276 19.1935C17.5261 18.8372 17.75 18.3539 17.75 17.85V6.45M11.375 0.750003C11.7113 0.749516 12.0445 0.808525 12.3552 0.923633C12.6659 1.03874 12.9481 1.20767 13.1855 1.4207L16.9977 4.8293C17.2366 5.04163 17.4261 5.29418 17.5552 5.57236C17.6843 5.85053 17.7505 6.14882 17.75 6.45M11.375 0.750003V5.5C11.375 5.75196 11.4869 5.99359 11.6862 6.17175C11.8855 6.34991 12.1557 6.45 12.4375 6.45L17.75 6.45" stroke="#FFF6EB" stroke-width="1.5" stroke-linecap="round" stroke-linejoin="round"/>
</svg>
