<svg width="65" height="97" viewBox="0 0 65 97" fill="none" xmlns="http://www.w3.org/2000/svg">
<path d="M32.2222 64.4444H16.1111C7.21327 64.4444 0 57.2311 0 48.3333C0 39.4354 7.21327 32.2222 16.1111 32.2222H32.2222V64.4444Z" fill="#A259FF"/>
<path d="M48.3338 64.4444C39.4359 64.4444 32.2227 57.2311 32.2227 48.3333C32.2227 39.4354 39.4359 32.2222 48.3338 32.2222C57.2316 32.2222 64.4449 39.4354 64.4449 48.3333C64.4449 57.2311 57.2316 64.4444 48.3338 64.4444Z" fill="#1ABCFE"/>
<path d="M16.1111 96.6666C7.21327 96.6666 0 89.4533 0 80.5554C0 71.6576 7.21327 64.4443 16.1111 64.4443H32.2222V80.5554C32.2222 89.4533 25.009 96.6666 16.1111 96.6666Z" fill="#0ACF83"/>
<path d="M32.2222 32.2222H16.1111C7.21327 32.2222 0 25.009 0 16.1111C0 7.21327 7.21327 0 16.1111 0H32.2222V32.2222Z" fill="#F24E1E"/>
<path d="M48.3338 32.2222H32.2227V0H48.3338C57.2316 0 64.4449 7.21327 64.4449 16.1111C64.4449 25.009 57.2316 32.2222 48.3338 32.2222Z" fill="#FF7262"/>
</svg>
