<svg width="23" height="17" viewBox="0 0 23 17" fill="none" xmlns="http://www.w3.org/2000/svg">
<path d="M21.9828 6.35739V12.7858M5.19557 9.03589V12.7858C5.19557 13.6383 5.85882 14.4558 7.0394 15.0586C8.21998 15.6614 9.82119 16 11.4908 16C13.1604 16 14.7616 15.6614 15.9422 15.0586C17.1228 14.4558 17.786 13.6383 17.786 12.7858V9.03589M21.3743 7.34522C21.5621 7.26061 21.7215 7.12159 21.8327 6.94538C21.9439 6.76917 22.0021 6.56352 21.9999 6.35389C21.9978 6.14427 21.9355 5.93989 21.8208 5.76607C21.706 5.59224 21.5438 5.45661 21.3543 5.37598L12.3616 1.19323C12.0882 1.0659 11.7913 1 11.4908 1C11.1903 1 10.8933 1.0659 10.62 1.19323L1.62829 5.3717C1.44149 5.45524 1.28259 5.59255 1.17101 5.76685C1.05942 5.94114 1 6.14487 1 6.3531C1 6.56134 1.05942 6.76506 1.17101 6.93936C1.28259 7.11365 1.44149 7.25097 1.62829 7.33451L10.62 11.5215C10.8933 11.6489 11.1903 11.7148 11.4908 11.7148C11.7913 11.7148 12.0882 11.6489 12.3616 11.5215L21.3743 7.34522Z" stroke="#F5ECE2" stroke-width="2" stroke-linecap="round" stroke-linejoin="round"/>
</svg>
