<svg width="19" height="21" viewBox="0 0 19 21" fill="none" xmlns="http://www.w3.org/2000/svg">
<path d="M12.0833 19.75V11.7502C12.0833 11.485 11.9838 11.2306 11.8067 11.0431C11.6296 10.8556 11.3894 10.7502 11.1389 10.7502H7.36111C7.11063 10.7502 6.87041 10.8556 6.69329 11.0431C6.51617 11.2306 6.41667 11.485 6.41667 11.7502V19.75M0.75 8.75028C0.749934 8.45935 0.809815 8.17192 0.925466 7.90802C1.04112 7.64412 1.20975 7.41011 1.41961 7.22232L8.03072 1.22247C8.37165 0.917384 8.80361 0.75 9.25 0.75C9.69638 0.75 10.1283 0.917384 10.4693 1.22247L17.0804 7.22232C17.2902 7.41011 17.4589 7.64412 17.5745 7.90802C17.6902 8.17192 17.7501 8.45935 17.75 8.75028V17.75C17.75 18.2805 17.551 18.7892 17.1968 19.1642C16.8425 19.5393 16.3621 19.75 15.8611 19.75H2.63889C2.13792 19.75 1.65748 19.5393 1.30324 19.1642C0.949007 18.7892 0.75 18.2805 0.75 17.75V8.75028Z" stroke="#FFF6EB" stroke-width="1.5" stroke-linecap="round" stroke-linejoin="round"/>
</svg>
