<svg width="16" height="21" viewBox="0 0 16 21" fill="none" xmlns="http://www.w3.org/2000/svg">
<path d="M7.75 16.9V19.75M7.75 16.9C9.60652 16.9 11.387 16.1994 12.6997 14.9523C14.0125 13.7051 14.75 12.0137 14.75 10.25V8.35M7.75 16.9C5.89348 16.9 4.11301 16.1994 2.80025 14.9523C1.4875 13.7051 0.75 12.0137 0.75 10.25V8.35M7.75 0.75C9.40685 0.75 10.75 2.02599 10.75 3.6V10.25C10.75 11.824 9.40685 13.1 7.75 13.1C6.09315 13.1 4.75 11.824 4.75 10.25V3.6C4.75 2.02599 6.09315 0.75 7.75 0.75Z" stroke="#F4EBE1" stroke-width="1.5" stroke-linecap="round" stroke-linejoin="round"/>
</svg>
