<svg width="22" height="21" viewBox="0 0 22 21" fill="none" xmlns="http://www.w3.org/2000/svg">
<path d="M11.75 18.8008H19.7501M13.7501 3.60043L17.7501 7.40051M19.9241 5.32187C20.4528 4.81971 20.7499 4.13858 20.75 3.42833C20.7501 2.71808 20.4532 2.03689 19.9246 1.5346C19.396 1.03232 18.6791 0.750089 17.9314 0.75C17.1838 0.749911 16.4668 1.03197 15.9381 1.53413L2.59195 14.216C2.35977 14.4359 2.18806 14.7067 2.09195 15.0045L0.770935 19.139C0.74509 19.2211 0.743138 19.3084 0.765286 19.3915C0.787434 19.4747 0.832855 19.5506 0.896732 19.6111C0.960609 19.6717 1.04056 19.7148 1.1281 19.7357C1.21564 19.7566 1.3075 19.7546 1.39394 19.7299L5.74698 18.4759C6.06015 18.3854 6.34516 18.2232 6.57699 18.0037L19.9241 5.32187Z" stroke="#FFF6EB" stroke-width="1.5" stroke-linecap="round" stroke-linejoin="round"/>
</svg>
