<svg width="21" height="21" viewBox="0 0 21 21" fill="none" xmlns="http://www.w3.org/2000/svg">
<path d="M17.85 7.40136C18.3539 7.40136 18.8372 7.60158 19.1935 7.95797C19.5498 8.31436 19.75 8.79773 19.75 9.30175V19.0754C19.75 19.2089 19.7104 19.3393 19.6363 19.4502C19.5622 19.5611 19.4568 19.6476 19.3336 19.6987C19.2104 19.7497 19.0748 19.7631 18.9439 19.737C18.8131 19.711 18.6929 19.6468 18.5986 19.5524L16.5067 17.4601C16.1505 17.1037 15.6673 16.9034 15.1634 16.9033H8.35C7.84609 16.9033 7.36282 16.7031 7.0065 16.3467C6.65018 15.9903 6.45 15.5069 6.45 15.0029V14.0527M14.05 8.35155C14.05 8.85557 13.8498 9.33894 13.4935 9.69533C13.1372 10.0517 12.6539 10.2519 12.15 10.2519H5.3366C4.83273 10.2521 4.34954 10.4523 3.9933 10.8088L1.9014 12.9011C1.80707 12.9954 1.68689 13.0597 1.55606 13.0857C1.42524 13.1117 1.28963 13.0983 1.16639 13.0473C1.04315 12.9962 0.937818 12.9098 0.863701 12.7989C0.789585 12.6879 0.750017 12.5575 0.75 12.4241V2.65039C0.75 2.14637 0.950178 1.663 1.3065 1.30661C1.66282 0.950219 2.14609 0.75 2.65 0.75H12.15C12.6539 0.75 13.1372 0.950219 13.4935 1.30661C13.8498 1.663 14.05 2.14637 14.05 2.65039V8.35155Z" stroke="#F4EBE1" stroke-width="1.5" stroke-linecap="round" stroke-linejoin="round"/>
</svg>
