<svg width="12" height="21" viewBox="0 0 12 21" fill="none" xmlns="http://www.w3.org/2000/svg">
<path d="M10.75 19.75H9.75C8.68913 19.75 7.67172 19.3496 6.92157 18.637C6.17143 17.9244 5.75 16.9578 5.75 15.95M5.75 15.95V4.55M5.75 15.95C5.75 16.9578 5.32857 17.9244 4.57843 18.637C3.82828 19.3496 2.81087 19.75 1.75 19.75H0.75M5.75 15.95V15M5.75 4.55C5.75 3.54218 6.17143 2.57563 6.92157 1.86299C7.67172 1.15036 8.68913 0.75 9.75 0.75H10.75M5.75 4.55C5.75 3.54218 5.32857 2.57563 4.57843 1.86299C3.82828 1.15036 2.81087 0.75 1.75 0.75H0.75M5.75 4.55V5.5" stroke="#F4EBE1" stroke-width="1.5" stroke-linecap="round" stroke-linejoin="round"/>
</svg>
