<svg width="22" height="21" viewBox="0 0 22 21" fill="none" xmlns="http://www.w3.org/2000/svg">
<path d="M6.12758 14V20M12.3739 17V20M11.3328 17H19.9736C20.1773 16.9973 20.3758 16.9371 20.5443 16.8271C20.7128 16.717 20.844 16.5618 20.9216 16.3808C20.9992 16.1998 21.0198 16.001 20.9808 15.8088C20.9418 15.6167 20.845 15.4398 20.7023 15.3L17.5792 12H17.8915C18.0952 11.9973 18.2937 11.9371 18.4622 11.8271C18.6307 11.717 18.7619 11.5619 18.8395 11.3808C18.9171 11.1998 18.9377 11.001 18.8987 10.8088C18.8597 10.6167 18.7629 10.4398 18.6202 10.3L15.497 7H15.7053C15.9179 7.01843 16.1313 6.97361 16.3165 6.87162C16.5017 6.76963 16.6498 6.6154 16.7408 6.42984C16.8317 6.24428 16.861 6.03636 16.8247 5.83425C16.7885 5.63215 16.6884 5.44564 16.5381 5.3L12.3739 1L10.9164 2.5M9.25074 8V8.2C9.93349 8.4522 10.5024 8.92661 10.8583 9.54048C11.2142 10.1544 11.3345 10.8687 11.1982 11.5591C11.0619 12.2494 10.6777 12.8719 10.1125 13.318C9.5473 13.7641 8.83705 14.0054 8.10558 14H4.04548C3.32275 13.9827 2.62864 13.7251 2.08154 13.2712C1.53445 12.8172 1.16825 12.195 1.04542 11.5106C0.922581 10.8263 1.05072 10.1222 1.40796 9.51848C1.76521 8.91474 2.32945 8.44875 3.00443 8.2V8C3.00443 7.20435 3.33347 6.44129 3.91918 5.87868C4.50488 5.31607 5.29927 5 6.12758 5C6.9559 5 7.75028 5.31607 8.33599 5.87868C8.92169 6.44129 9.25074 7.20435 9.25074 8Z" stroke="#F5ECE2" stroke-width="2" stroke-linecap="round" stroke-linejoin="round"/>
</svg>
